# Alias OBJ Model File
# Exported from SketchUp, (c) 2000-2012 Trimble Navigation Limited
# File units = centimeters

mtllib meter.mtl

g Mesh1 Group1 Model

usemtl Color_A04
v -751.309 172.235 20.7934
vt -67.8091 6.81736
vn -0.962368 -3.59926e-013 -0.271751
v -751.309 19.3648 20.7934
vt -7.62394 6.81736
v -753.439 19.3648 29.2154
vt -7.62394 10.2375
vn -0.97586 -3.64977e-013 -0.218395
v -753.439 172.235 29.2154
vt -67.8091 10.2375
f 1/1/1 2/2/1 3/3/2 4/4/2 

v -748.72 172.235 12.5012
vt -67.8091 3.15933
vn -0.954525 -3.56996e-013 -0.298131
v -748.72 19.3648 12.5012
vt -7.62394 3.15933
vt -7.62394 6.57948
vt -67.8091 6.57948
f 5/5/3 6/6/3 2/7/1 1/8/1 

usemtl M_1_2
v -489.176 19.3648 12.5012
vt 0.165473 0.106427
vn -5.26682e-016 1.96766e-017 -1
v -610.131 19.3648 12.5012
vt 0.0964142 0.106427
vt 0.0172873 0.106427
vt 0.0172873 0.799977
v -610.131 172.235 12.5012
vt 0.0964142 0.799977
v -489.176 172.235 12.5012
vt 0.165473 0.799977
f 7/9/4 8/10/4 6/11/4 5/12/4 9/13/4 10/14/4 

v -610.131 19.3648 1.43
vn -3.74013e-013 1 8.43558e-016
v -435.567 19.3648 1.4314
vt 0.196081 0.106427
f 11/10/5 8/10/5 7/9/5 12/15/5 

usemtl Color_A04
v -610.131 -2.68515e-010 119.936
vt 2.15926e-011 46.6557
vn -1 -3.72796e-013 1.11538e-030
v -610.131 19.3648 119.936
vt -7.62394 46.6557
v -610.131 19.3648 114.876
vt -7.62394 44.6636
vt -7.62394 4.35876
vt -7.62394 6.46038e-029
v -610.131 -2.68515e-010 1.43
vt 2.15926e-011 6.46038e-029
f 13/16/6 14/17/6 15/18/6 8/19/6 11/20/6 16/21/6 

usemtl M_1_2
v -610.131 172.235 119.936
vn 0 0 1
v -435.567 172.235 119.936
vt 0.196081 0.799977
v -435.567 19.3648 119.936
vt 0.0964142 0.0185718
v 613.867 1.89393e-010 119.936
vt 0.795254 0.0185718
v 613.867 191.6 119.936
vt 0.795254 0.887833
v -610.131 191.6 119.936
vt 0.0964142 0.887833
f 17/13/7 18/22/7 19/15/7 14/10/7 13/23/7 20/24/7 21/25/7 22/26/7 

v -489.176 172.235 114.876
vn 3.74153e-013 -1 -2.46111e-015
v -610.131 172.235 114.876
f 23/14/8 18/22/8 17/13/8 24/13/8 

vt 0.165473 0.855613
vn -0.0939696 -3.51459e-014 0.995575
v -489.176 19.3648 114.876
vt 0.165473 0.112682
vt 0.196081 0.112682
vt 0.196081 0.855613
f 23/27/9 25/28/9 19/29/9 18/30/9 

vn -5.68018e-016 -2.12492e-028 1
v -748.72 172.235 114.876
v -748.72 19.3648 114.876
f 23/14/10 24/13/10 26/12/10 27/11/10 15/10/10 25/9/10 

usemtl M_1_3
vt 0.989837 0.0272998
vn -3.74331e-013 1 -2.81369e-016
vt 0.989837 0.980723
vt 0.0772721 0.980723
vt 0.0602183 0.903497
vt 0.0461941 0.825062
v -755.103 172.235 37.7419
vt 0.0352422 0.745654
v -756.294 172.235 46.3469
vt 0.0273956 0.665514
v -757.011 172.235 55.0045
vt 0.0226781 0.584885
v -757.25 172.235 63.6884
vt 0.021104 0.504011
v -757.011 172.235 72.3723
vt 0.0226781 0.423137
v -756.294 172.235 81.0298
vt 0.0273956 0.342508
v -755.103 172.235 89.6349
vt 0.0352422 0.262369
v -753.439 172.235 98.1614
vt 0.0461941 0.182961
v -751.309 172.235 106.583
vt 0.0602183 0.104525
vt 0.0772721 0.0272998
f 24/31/11 9/32/11 5/33/11 1/34/11 4/35/11 28/36/11 29/37/11 30/38/11 31/39/11 32/40/11 33/41/11 34/42/11 35/43/11 36/44/11 26/45/11 

usemtl Color_A04
vt -67.8091 4.35876
vn -1 -3.72796e-013 3.64731e-029
vt -67.8091 44.6636
vt -67.8091 46.6557
vt -75.433 46.6557
v -610.131 191.6 1.43
vt -75.433 2.11254e-027
v -610.131 172.235 1.43
vt -67.8091 2.11254e-027
f 9/46/12 24/47/12 17/48/12 22/49/12 37/50/12 38/51/12 

usemtl M_1_4
v 951.489 191.6 16.8255
vt 0.00707254 0.137757
vn -3.74241e-013 1 -9.19435e-016
v 947.728 191.6 8.6514
vt 0.00946122 0.0709939
v 663.192 191.6 8.6514
vt 0.190169 0.0709939
v 613.867 191.6 1.4314
vt 0.221495 0.0120238
vt 0.998852 0.0120124
vt 0.998852 0.979919
vt 0.221495 0.979919
v 663.192 191.6 112.714
vt 0.190169 0.920937
v 947.728 191.6 112.714
vt 0.00946122 0.920937
v 951.489 191.6 104.54
vt 0.00707254 0.854174
v 954.598 191.6 96.0964
vt 0.00509782 0.78521
v 957.037 191.6 87.4351
vt 0.00354921 0.714468
v 958.789 191.6 78.6095
vt 0.00243621 0.642384
v 959.845 191.6 69.6738
vt 0.00176566 0.569401
v 960.198 191.6 60.6828
vt 0.00154168 0.495966
v 959.845 191.6 51.6918
vt 0.00176566 0.422531
v 958.789 191.6 42.756
vt 0.00243621 0.349547
v 957.037 191.6 33.9304
vt 0.00354921 0.277463
v 954.598 191.6 25.2692
vt 0.00509782 0.206721
f 39/52/13 40/53/13 41/54/13 42/55/13 37/56/13 22/57/13 21/58/13 43/59/13 44/60/13 45/61/13 46/62/13 47/63/13 48/64/13 49/65/13 50/66/13 51/67/13 52/68/13 53/69/13 54/70/13 

usemtl Color_A04
v 947.728 3.14284e-010 8.6514
vt -1.79966e-011 283.165
vn 0.908447 3.34883e-013 -0.418
vt 75.433 283.165
vt 75.433 286.708
vn 0.924132 3.37105e-013 -0.382073
v 951.489 3.16097e-010 16.8255
vt -1.78289e-011 286.708
f 55/71/14 40/72/14 39/73/15 56/74/15 

usemtl M_1_2
vt 0.823416 0.887833
vn 4.75715e-017 1.64842e-016 -1
vt 0.985871 0.887833
vt 0.985871 0.0185718
v 663.192 2.07838e-010 8.6514
vt 0.823416 0.0185718
f 41/75/16 40/76/16 55/77/16 57/78/16 

usemtl M_1_4
v 960.198 3.1889e-010 60.6828
vn 3.74121e-013 -1 4.06241e-016
v 959.845 3.18752e-010 69.6738
v 958.789 3.18404e-010 78.6095
v 957.037 3.17741e-010 87.4351
v 954.598 3.16834e-010 96.0964
v 951.489 3.1624e-010 104.54
v 947.728 3.14284e-010 112.714
v 663.192 2.07838e-010 112.714
vt 0.221495 0.0120124
v 613.867 1.89393e-010 1.4314
vt 0.221495 0.979907
v 954.598 3.16724e-010 25.2692
v 957.037 3.17666e-010 33.9304
v 958.789 3.18329e-010 42.756
v 959.845 3.18749e-010 51.6918
f 58/66/17 59/67/17 60/68/17 61/69/17 62/70/17 63/52/17 64/53/17 65/54/17 20/79/17 13/56/17 16/57/17 66/80/17 57/59/17 55/60/17 56/61/17 67/62/17 68/63/17 69/64/17 70/65/17 

usemtl Color_A04
vt -1.73842e-011 0.351131
vn 0.996928 3.67346e-013 0.0783274
vt -1.73808e-011 -3.19136
vn 1 3.67737e-013 -2.91658e-016
vt 75.433 -3.19136
vt 75.433 0.351131
f 59/81/18 58/82/19 50/83/19 49/84/18 

vt -1.73989e-011 46.2687
vn 0.996928 3.67381e-013 -0.0783274
vt 75.433 46.2687
vt 75.433 49.8112
vt -1.73945e-011 49.8112
f 70/85/20 51/86/20 50/87/19 58/88/19 

vt -1.84496e-011 95.4336
vn 0.98773 3.63291e-013 -0.156173
vt 75.433 95.4336
vt 75.433 98.9761
vt -1.84379e-011 98.9761
f 69/89/21 52/90/21 51/91/20 70/92/20 

vt -1.64462e-011 144.001
vn 0.972462 3.53314e-013 -0.23306
vt 75.433 144.001
vt 75.433 147.544
vt -1.64377e-011 147.544
f 68/93/22 53/94/22 52/95/21 69/96/21 

vt -1.24009e-011 191.673
vn 0.95122 3.43065e-013 -0.308514
vt 75.433 191.673
vt 75.433 195.216
vt -1.23759e-011 195.216
f 67/97/23 54/98/23 53/99/22 68/100/22 

vt -1.27284e-011 238.156
vt 75.433 238.156
vt 75.433 241.699
vt -1.29235e-011 241.699
f 56/101/15 39/102/15 54/103/23 67/104/23 

vt -1.83862e-011 -49.1002
vn 0.98773 3.62859e-013 0.156173
vt -1.84027e-011 -52.6427
vt 75.433 -52.6427
vt 75.433 -49.1002
f 60/105/24 59/106/18 49/107/18 48/108/24 

vt -1.58566e-011 -98.239
vn 0.972462 3.52497e-013 0.23306
vt -1.5848e-011 -101.782
vt 75.433 -101.782
vt 75.433 -98.239
f 61/109/25 60/110/24 48/111/24 47/112/25 

vt -1.1783e-011 -146.763
vn 0.95122 3.42594e-013 0.308514
vt -1.17709e-011 -150.306
vt 75.433 -150.306
vt 75.433 -146.763
f 62/113/26 61/114/25 47/115/25 46/116/26 

vt -1.25854e-011 -194.375
vn 0.924132 3.36951e-013 0.382073
vt -1.27933e-011 -197.917
vt 75.433 -197.917
vt 75.433 -194.375
f 63/117/27 62/118/26 46/119/26 45/120/27 

vt -1.78583e-011 -240.781
vn 0.908447 3.34696e-013 0.418
vt -1.76338e-011 -244.324
vt 75.433 -244.324
vt 75.433 -240.781
f 64/121/28 63/122/27 45/123/27 44/124/28 

usemtl M_1_2
vn -2.53715e-016 -9.41952e-017 1
f 43/75/29 65/78/29 64/77/29 44/76/29 

vn 0.144862 5.41449e-014 0.989452
f 21/25/30 20/24/30 65/78/30 43/75/30 

v -455.707 172.235 1.4314
vt 0.184582 0.799977
vn 9.15741e-007 3.14894e-007 -1
v -435.567 172.235 1.4314
v -455.702 172.235 1.43
vt 0.184585 0.799977
f 71/125/31 38/13/31 37/26/31 42/25/31 66/24/31 16/23/31 11/10/31 12/15/31 72/22/31 73/126/31 

vn 3.74279e-013 -1 -6.39449e-016
f 38/13/32 71/125/32 73/126/32 72/22/32 10/14/32 9/13/32 

vn -0.202226 -7.56358e-014 -0.979339
f 12/15/33 7/9/33 10/14/33 72/22/33 

vn 0.144834 5.41339e-014 -0.989456
f 42/25/34 41/75/34 57/78/34 66/24/34 

usemtl Color_A04
vt -67.8091 10.4496
vt -7.62394 10.4496
v -755.103 19.3648 37.7419
vt -7.62394 13.8697
vn -0.986397 -3.68933e-013 -0.164378
vt -67.8091 13.8697
f 4/127/2 3/128/2 74/129/35 28/130/35 

usemtl M_1_3
vn 3.73992e-013 -1 -9.91433e-017
v -751.309 19.3648 106.583
v -753.439 19.3648 98.1614
v -755.103 19.3648 89.6349
v -756.294 19.3648 81.0298
v -757.011 19.3648 72.3723
v -757.25 19.3648 63.6884
v -757.011 19.3648 55.0045
v -756.294 19.3648 46.3469
f 8/31/36 15/32/36 27/33/36 75/34/36 76/35/36 77/36/36 78/37/36 79/38/36 80/39/36 81/40/36 82/41/36 74/42/36 3/43/36 2/44/36 6/45/36 

usemtl Color_A04
vt -67.8091 40.2136
vn -0.962368 -3.58974e-013 0.271751
vt -7.62394 40.2136
vt -7.62394 43.6337
vn -0.954525 -3.56952e-013 0.298131
vt -67.8091 43.6337
f 36/131/37 75/132/37 27/133/38 26/134/38 

vt -67.8091 40.7089
vt -67.8091 37.2887
vn -0.97586 -3.62192e-013 0.218395
vt -7.62394 37.2887
vt -7.62394 40.7089
f 36/135/37 35/136/39 76/137/39 75/138/37 

vt -67.8091 34.2458
vn -0.986397 -3.66118e-013 0.164378
vt -7.62394 34.2458
vt -7.62394 37.6659
vt -67.8091 37.6659
f 34/139/40 77/140/40 76/141/39 35/142/39 

vt -67.8091 31.0939
vn -0.993947 -3.70782e-013 0.109863
vt -7.62394 31.0939
vt -7.62394 34.514
vt -67.8091 34.514
f 33/143/41 78/144/41 77/145/40 34/146/40 

vt -67.8091 27.8426
vn -0.998486 -3.7343e-013 0.0550147
vt -7.62394 27.8426
vt -7.62394 31.2628
vt -67.8091 31.2628
f 32/147/42 79/148/42 78/149/41 33/150/41 

vt -67.8091 24.5019
vn -1 -3.74011e-013 2.95015e-017
vt -7.62394 24.5019
vt -7.62394 27.922
vt -67.8091 27.922
f 31/151/43 80/152/43 79/153/42 32/154/42 

vt -67.8091 21.0817
vn -0.998486 -3.73449e-013 -0.0550147
vt -7.62394 21.0817
f 30/155/44 81/156/44 80/152/43 31/151/43 

vt -67.8091 17.5926
vn -0.993947 -3.71759e-013 -0.109863
vt -7.62394 17.5926
vt -7.62394 21.0127
vt -67.8091 21.0127
f 29/157/45 82/158/45 81/159/44 30/160/44 

vt -67.8091 14.0449
vt -7.62394 14.0449
vt -7.62394 17.4651
vt -67.8091 17.4651
f 28/161/35 74/162/35 82/163/45 29/164/45 

usemtl M_1_2
vn -3.74013e-013 1 -1.8457e-015
f 15/10/46 14/10/46 19/15/46 25/9/46 

g Mesh2 V_Ray_Infinite_Plane1 Model

usemtl FrontColor
v 45.72 22.86 2023.64
vt 0.375 -0.375
vn 0 2.498e-016 -1
v 45.72 -22.86 2023.64
vt 0.375 0.375
v -45.72 -22.86 2023.64
vt -0.375 0.375
v -45.72 22.86 2023.64
vt -0.375 -0.375
f 83/165/47 84/166/47 85/167/47 86/168/47 

