# 3ds Max Wavefront OBJ Exporter v0.97b - (c)2007 guruware
# File Created: 17.07.2014 16:53:47

mtllib tray.mtl

#
# object tray
#

v  0.506927 1.097137 8.907642
v  34.832642 1.097137 8.907642
v  -1.493073 1.097137 -15.707905
v  36.832642 1.097137 -15.707905
v  0.506927 1.554565 8.907642
v  36.832642 1.554565 6.907642
v  -1.493073 1.554565 -15.707905
v  34.832642 1.554565 -17.707905
v  1.809412 1.554565 7.733694
v  35.769245 1.554565 5.733694
v  -0.190588 1.554565 -14.533958
v  33.769245 1.554565 -16.533958
v  2.795883 1.082275 6.945108
v  34.782776 1.082275 4.945108
v  0.795883 1.082275 -13.529196
v  32.782776 1.082275 -15.529196
v  -0.441702 0.304375 6.177509
v  33.781265 0.304375 8.177509
v  1.558298 0.304375 -16.977772
v  35.781265 0.304375 -14.977772
v  1.156006 0.304375 5.067970
v  32.183556 0.304375 7.067970
v  3.156006 0.304375 -15.868233
v  34.183556 0.304375 -13.868233
v  -1.493073 1.097137 6.907642
v  36.832642 1.097137 6.907642
v  0.506927 1.097137 -17.707905
v  34.832642 1.097137 -17.707905
v  -1.493073 1.554565 6.907642
v  34.832642 1.554565 8.907642
v  0.506927 1.554565 -17.707905
v  36.832642 1.554565 -15.707905
v  -0.190588 1.554565 5.733694
v  33.769245 1.554565 7.733694
v  1.809412 1.554565 -16.533958
v  35.769245 1.554565 -14.533958
v  0.795883 1.082275 4.945108
v  32.782776 1.082275 6.945108
v  2.795883 1.082275 -15.529196
v  34.782776 1.082275 -13.529196
v  1.558298 0.304375 8.177509
v  35.781265 0.304375 6.177509
v  -0.441702 0.304375 -14.977772
v  33.781265 0.304375 -16.977772
v  3.156006 0.304375 7.067970
v  34.183556 0.304375 5.067970
v  1.156006 0.304375 -13.868233
v  32.183556 0.304375 -15.868233
v  -0.604184 1.097137 8.685420
v  -1.270850 1.097137 8.018753
v  35.943752 1.097137 8.685420
v  36.610420 1.097137 8.018754
v  -1.270850 1.097137 -16.819016
v  -0.604184 1.097137 -17.485683
v  36.610420 1.097137 -16.819016
v  35.943752 1.097137 -17.485683
v  -0.604184 1.554565 8.685420
v  -1.270850 1.554565 8.018754
v  36.610420 1.554565 8.018753
v  35.943752 1.554565 8.685420
v  -1.270850 1.554565 -16.819016
v  -0.604184 1.554565 -17.485683
v  35.943752 1.554565 -17.485683
v  36.610420 1.554565 -16.819016
v  0.698301 1.554565 7.511472
v  0.031634 1.554565 6.844805
v  35.547024 1.554565 6.844805
v  34.880356 1.554565 7.511472
v  0.031634 1.554565 -15.645069
v  0.698301 1.554565 -16.311737
v  34.880356 1.554565 -16.311737
v  35.547024 1.554565 -15.645070
v  1.018105 1.082275 6.056220
v  1.684772 1.082275 6.722886
v  33.893887 1.082275 6.722886
v  34.560555 1.082275 6.056220
v  1.684772 1.082275 -15.306973
v  1.018105 1.082275 -14.640306
v  34.560555 1.082275 -14.640307
v  33.893887 1.082275 -15.306973
v  -0.219480 0.304375 7.288620
v  0.447187 0.304375 7.955287
v  34.892376 0.304375 7.955287
v  35.559044 0.304375 7.288620
v  0.447187 0.304375 -16.755550
v  -0.219480 0.304375 -16.088882
v  35.559044 0.304375 -16.088882
v  34.892376 0.304375 -16.755550
v  2.044895 0.304375 6.845748
v  1.378228 0.304375 6.179081
v  33.961334 0.304375 6.179081
v  33.294666 0.304375 6.845748
v  1.378228 0.304375 -14.979344
v  2.044895 0.304375 -15.646010
v  33.294666 0.304375 -15.646010
v  33.961334 0.304375 -14.979343
# 96 vertices

vn -0.105381 -0.395025 0.912606
vn 0.105381 -0.395025 0.912606
vn 0.098538 0.000000 0.995133
vn -0.098538 0.000000 0.995133
vn 0.887611 -0.450524 0.095783
vn 0.887611 -0.450524 -0.095783
vn 0.995133 0.000000 -0.098537
vn 0.995133 0.000000 0.098537
vn 0.105381 -0.395025 -0.912606
vn -0.105381 -0.395025 -0.912606
vn -0.098537 0.000000 -0.995133
vn 0.098537 0.000000 -0.995133
vn -0.887612 -0.450523 -0.095784
vn -0.887612 -0.450523 0.095784
vn -0.995133 0.000000 0.098538
vn -0.995133 0.000000 -0.098538
vn 0.000000 1.000000 -0.000000
vn 0.000000 1.000000 -0.000000
vn 0.000000 1.000000 -0.000000
vn 0.000000 1.000000 -0.000000
vn 0.000000 1.000000 -0.000000
vn 0.000000 1.000000 -0.000000
vn 0.000000 1.000000 -0.000000
vn 0.000000 1.000000 -0.000000
vn 0.000000 1.000000 -0.000000
vn 0.000000 1.000000 -0.000000
vn 0.000000 1.000000 -0.000000
vn 0.000000 1.000000 -0.000000
vn 0.000000 1.000000 -0.000000
vn 0.000000 1.000000 -0.000000
vn 0.000000 1.000000 -0.000000
vn 0.000000 1.000000 -0.000000
vn 0.064426 0.889592 -0.452191
vn -0.064426 0.889591 -0.452191
vn -0.024029 0.870623 -0.491364
vn 0.024029 0.870623 -0.491364
vn -0.397239 0.916250 -0.051829
vn -0.386652 0.920692 0.053161
vn -0.413067 0.910425 0.022400
vn -0.414815 0.909539 -0.025824
vn -0.052189 0.922524 0.382395
vn 0.052189 0.922524 0.382395
vn 0.022536 0.913113 0.407084
vn -0.022536 0.913113 0.407084
vn 0.386651 0.920693 0.053161
vn 0.397238 0.916251 -0.051829
vn 0.414814 0.909540 -0.025824
vn 0.413066 0.910425 0.022400
vn 0.000000 1.000000 -0.000000
vn 0.000000 1.000000 -0.000000
vn 0.000000 1.000000 -0.000000
vn 0.000000 1.000000 -0.000000
vn 0.000000 1.000000 -0.000000
vn 0.000000 1.000000 -0.000000
vn 0.000000 1.000000 -0.000000
vn 0.000000 1.000000 -0.000000
vn 0.000000 1.000000 -0.000000
vn 0.000000 1.000000 -0.000000
vn 0.000000 1.000000 -0.000000
vn 0.000000 1.000000 -0.000000
vn 0.000000 1.000000 -0.000000
vn 0.000000 1.000000 -0.000000
vn 0.000000 1.000000 -0.000000
vn 0.000000 1.000000 -0.000000
vn 0.000000 1.000000 -0.000000
vn 0.000000 1.000000 -0.000000
vn 0.000000 1.000000 -0.000000
vn 0.000000 1.000000 -0.000000
vn 0.000000 1.000000 -0.000000
vn 0.000000 1.000000 -0.000000
vn 0.000000 1.000000 -0.000000
vn 0.000000 1.000000 -0.000000
vn 0.000000 1.000000 -0.000000
vn 0.000000 1.000000 -0.000000
vn 0.000000 1.000000 -0.000000
vn 0.000000 1.000000 -0.000000
vn 0.000000 1.000000 -0.000000
vn 0.000000 1.000000 -0.000000
vn -0.887612 -0.450523 0.095784
vn -0.887612 -0.450523 -0.095784
vn -0.323738 -0.945876 -0.022640
vn -0.323738 -0.945876 0.022640
vn -0.105381 -0.395025 -0.912606
vn 0.105381 -0.395025 -0.912606
vn 0.020947 -0.914003 -0.405167
vn -0.020947 -0.914002 -0.405167
vn 0.887611 -0.450524 -0.095783
vn 0.887611 -0.450524 0.095783
vn 0.323736 -0.945876 0.022640
vn 0.323736 -0.945876 -0.022640
vn 0.105381 -0.395025 0.912606
vn -0.105381 -0.395025 0.912606
vn -0.020947 -0.914002 0.405167
vn 0.020947 -0.914003 0.405167
vn -0.323738 -0.945876 0.022640
vn -0.323738 -0.945876 -0.022640
vn 0.000000 -1.000000 -0.000000
vn 0.000000 -1.000000 -0.000000
vn -0.020947 -0.914002 -0.405167
vn 0.020947 -0.914003 -0.405167
vn 0.000000 -1.000000 -0.000000
vn 0.000000 -1.000000 -0.000000
vn 0.323736 -0.945876 -0.022640
vn 0.323736 -0.945876 0.022640
vn 0.000000 -1.000000 -0.000000
vn 0.000000 -1.000000 -0.000000
vn 0.020947 -0.914003 0.405167
vn -0.020947 -0.914002 0.405167
vn 0.000000 -1.000000 -0.000000
vn 0.000000 -1.000000 -0.000000
vn 0.000000 -1.000000 -0.000000
vn 0.000000 -1.000000 -0.000000
vn 0.000000 -1.000000 -0.000000
vn 0.000000 -1.000000 -0.000000
vn 0.000000 -1.000000 -0.000000
vn 0.000000 -1.000000 -0.000000
vn 0.000000 -1.000000 -0.000000
vn 0.000000 -1.000000 -0.000000
vn 0.000000 -1.000000 -0.000000
vn 0.000000 -1.000000 -0.000000
vn 0.000000 -1.000000 -0.000000
vn 0.000000 -1.000000 -0.000000
vn 0.000000 -1.000000 -0.000000
vn 0.000000 -1.000000 -0.000000
vn 0.000000 -1.000000 -0.000000
vn 0.000000 -1.000000 -0.000000
vn 0.000000 -1.000000 -0.000000
vn 0.000000 -1.000000 -0.000000
vn 0.000000 -1.000000 -0.000000
vn 0.000000 -1.000000 -0.000000
vn 0.000000 -1.000000 -0.000000
vn 0.000000 -1.000000 -0.000000
vn 0.000000 -1.000000 -0.000000
vn 0.000000 -1.000000 -0.000000
vn 0.000000 -1.000000 -0.000000
vn 0.000000 -1.000000 -0.000000
vn 0.000000 -1.000000 -0.000000
vn 0.000000 -1.000000 -0.000000
vn 0.000000 -1.000000 -0.000000
vn 0.000000 -1.000000 -0.000000
vn 0.471858 0.000000 0.881675
vn 0.098538 0.000000 0.995133
vn 0.105381 -0.395025 0.912606
vn 0.440063 -0.436635 0.784662
vn -0.440064 -0.436635 0.784662
vn -0.105381 -0.395025 0.912606
vn -0.098538 0.000000 0.995133
vn -0.471858 -0.000000 0.881675
vn 0.881675 0.000000 -0.471858
vn 0.995133 0.000000 -0.098537
vn 0.887611 -0.450524 -0.095783
vn 0.784935 -0.451038 -0.424784
vn -0.471858 -0.000000 -0.881674
vn -0.098537 0.000000 -0.995133
vn -0.105381 -0.395025 -0.912606
vn -0.440063 -0.436635 -0.784662
vn 0.000000 1.000000 -0.000000
vn 0.000000 1.000000 -0.000000
vn 0.000000 1.000000 -0.000000
vn 0.000000 1.000000 -0.000000
vn 0.000000 1.000000 -0.000000
vn 0.000000 1.000000 -0.000000
vn 0.000000 1.000000 -0.000000
vn 0.000000 1.000000 -0.000000
vn 0.000000 1.000000 -0.000000
vn 0.000000 1.000000 -0.000000
vn 0.000000 1.000000 -0.000000
vn 0.000000 1.000000 -0.000000
vn 0.000000 1.000000 -0.000000
vn 0.000000 1.000000 -0.000000
vn 0.000000 1.000000 -0.000000
vn 0.000000 1.000000 -0.000000
vn 0.322697 0.933643 -0.155492
vn 0.414814 0.909540 -0.025824
vn 0.397238 0.916251 -0.051829
vn 0.307901 0.935198 -0.174933
vn -0.152066 0.920141 -0.360855
vn -0.024029 0.870623 -0.491364
vn -0.064426 0.889591 -0.452191
vn -0.192441 0.929129 -0.315731
vn 0.138610 0.941704 0.306563
vn 0.022536 0.913113 0.407084
vn 0.052189 0.922524 0.382395
vn 0.165512 0.945105 0.281748
vn -0.309492 0.940782 0.138359
vn -0.413067 0.910425 0.022400
vn -0.386652 0.920692 0.053161
vn -0.282351 0.944691 0.166843
vn -0.140237 -0.932186 0.333712
vn -0.020947 -0.914002 0.405167
vn -0.105381 -0.395025 0.912606
vn -0.440064 -0.436635 0.784662
vn 0.287445 -0.946723 0.145225
vn 0.323736 -0.945876 0.022640
vn 0.887611 -0.450524 0.095783
vn 0.784935 -0.451038 0.424785
vn -0.287446 -0.946723 -0.145225
vn -0.323738 -0.945876 -0.022640
vn -0.887612 -0.450523 -0.095784
vn -0.784935 -0.451038 -0.424784
vn 0.140237 -0.932186 -0.333712
vn 0.020947 -0.914003 -0.405167
vn 0.105381 -0.395025 -0.912606
vn 0.440063 -0.436635 -0.784662
vn 0.000000 -1.000000 -0.000000
vn 0.000000 -1.000000 -0.000000
vn -0.020947 -0.914002 0.405167
vn -0.140237 -0.932186 0.333712
vn 0.000000 -1.000000 -0.000000
vn 0.000000 -1.000000 -0.000000
vn 0.323736 -0.945876 0.022640
vn 0.287445 -0.946723 0.145225
vn 0.000000 -1.000000 -0.000000
vn 0.000000 -1.000000 -0.000000
vn -0.323738 -0.945876 -0.022640
vn -0.287446 -0.946723 -0.145225
vn 0.000000 -1.000000 -0.000000
vn 0.000000 -1.000000 -0.000000
vn 0.020947 -0.914003 -0.405167
vn 0.140237 -0.932186 -0.333712
vn 0.881675 0.000001 0.471858
vn 0.471858 0.000000 0.881675
vn 0.440063 -0.436635 0.784662
vn 0.784935 -0.451038 0.424785
vn 0.995133 0.000000 0.098537
vn 0.881675 0.000001 0.471858
vn 0.784935 -0.451038 0.424785
vn 0.887611 -0.450524 0.095783
vn -0.784935 -0.451038 0.424784
vn -0.440064 -0.436635 0.784662
vn -0.471858 -0.000000 0.881675
vn -0.881674 -0.000001 0.471858
vn -0.887612 -0.450523 0.095784
vn -0.784935 -0.451038 0.424784
vn -0.881674 -0.000001 0.471858
vn -0.995133 0.000000 0.098538
vn 0.471858 0.000000 -0.881675
vn 0.881675 0.000000 -0.471858
vn 0.784935 -0.451038 -0.424784
vn 0.440063 -0.436635 -0.784662
vn 0.098537 0.000000 -0.995133
vn 0.471858 0.000000 -0.881675
vn 0.440063 -0.436635 -0.784662
vn 0.105381 -0.395025 -0.912606
vn -0.881675 -0.000000 -0.471857
vn -0.471858 -0.000000 -0.881674
vn -0.440063 -0.436635 -0.784662
vn -0.784935 -0.451038 -0.424784
vn -0.995133 0.000000 -0.098538
vn -0.881675 -0.000000 -0.471857
vn -0.784935 -0.451038 -0.424784
vn -0.887612 -0.450523 -0.095784
vn 0.000000 1.000000 -0.000000
vn 0.000000 1.000000 -0.000000
vn 0.000000 1.000000 -0.000000
vn 0.000000 1.000000 -0.000000
vn 0.000000 1.000000 -0.000000
vn 0.000000 1.000000 -0.000000
vn 0.000000 1.000000 -0.000000
vn 0.000000 1.000000 -0.000000
vn 0.000000 1.000000 -0.000000
vn 0.000000 1.000000 -0.000000
vn 0.000000 1.000000 -0.000000
vn 0.000000 1.000000 -0.000000
vn 0.000000 1.000000 -0.000000
vn 0.000000 1.000000 -0.000000
vn 0.000000 1.000000 -0.000000
vn 0.000000 1.000000 -0.000000
vn 0.000000 1.000000 -0.000000
vn 0.000000 1.000000 -0.000000
vn 0.000000 1.000000 -0.000000
vn 0.000000 1.000000 -0.000000
vn 0.000000 1.000000 -0.000000
vn 0.000000 1.000000 -0.000000
vn 0.000000 1.000000 -0.000000
vn 0.000000 1.000000 -0.000000
vn 0.000000 1.000000 -0.000000
vn 0.000000 1.000000 -0.000000
vn 0.000000 1.000000 -0.000000
vn 0.000000 1.000000 -0.000000
vn 0.000000 1.000000 -0.000000
vn 0.000000 1.000000 -0.000000
vn 0.000000 1.000000 -0.000000
vn 0.000000 1.000000 -0.000000
vn 0.152066 0.920141 -0.360854
vn 0.322697 0.933643 -0.155492
vn 0.307901 0.935198 -0.174933
vn 0.192441 0.929129 -0.315730
vn 0.024029 0.870623 -0.491364
vn 0.152066 0.920141 -0.360854
vn 0.192441 0.929129 -0.315730
vn 0.064426 0.889592 -0.452191
vn -0.322697 0.933643 -0.155492
vn -0.152066 0.920141 -0.360855
vn -0.192441 0.929129 -0.315731
vn -0.307901 0.935198 -0.174933
vn -0.414815 0.909539 -0.025824
vn -0.322697 0.933643 -0.155492
vn -0.307901 0.935198 -0.174933
vn -0.397239 0.916250 -0.051829
vn 0.309492 0.940783 0.138359
vn 0.138610 0.941704 0.306563
vn 0.165512 0.945105 0.281748
vn 0.282351 0.944691 0.166843
vn 0.413066 0.910425 0.022400
vn 0.309492 0.940783 0.138359
vn 0.282351 0.944691 0.166843
vn 0.386651 0.920693 0.053161
vn -0.138610 0.941704 0.306563
vn -0.309492 0.940782 0.138359
vn -0.282351 0.944691 0.166843
vn -0.165512 0.945105 0.281749
vn -0.022536 0.913113 0.407084
vn -0.138610 0.941704 0.306563
vn -0.165512 0.945105 0.281749
vn -0.052189 0.922524 0.382395
vn -0.287446 -0.946723 0.145225
vn -0.140237 -0.932186 0.333712
vn -0.440064 -0.436635 0.784662
vn -0.784935 -0.451038 0.424784
vn -0.323738 -0.945876 0.022640
vn -0.287446 -0.946723 0.145225
vn -0.784935 -0.451038 0.424784
vn -0.887612 -0.450523 0.095784
vn 0.140237 -0.932186 0.333711
vn 0.287445 -0.946723 0.145225
vn 0.784935 -0.451038 0.424785
vn 0.440063 -0.436635 0.784662
vn 0.020947 -0.914003 0.405167
vn 0.140237 -0.932186 0.333711
vn 0.440063 -0.436635 0.784662
vn 0.105381 -0.395025 0.912606
vn -0.140237 -0.932186 -0.333712
vn -0.287446 -0.946723 -0.145225
vn -0.784935 -0.451038 -0.424784
vn -0.440063 -0.436635 -0.784662
vn -0.020947 -0.914002 -0.405167
vn -0.140237 -0.932186 -0.333712
vn -0.440063 -0.436635 -0.784662
vn -0.105381 -0.395025 -0.912606
vn 0.287445 -0.946723 -0.145225
vn 0.140237 -0.932186 -0.333712
vn 0.440063 -0.436635 -0.784662
vn 0.784935 -0.451038 -0.424784
vn 0.323736 -0.945876 -0.022640
vn 0.287445 -0.946723 -0.145225
vn 0.784935 -0.451038 -0.424784
vn 0.887611 -0.450524 -0.095783
vn 0.000000 -1.000000 -0.000000
vn 0.000000 -1.000000 -0.000000
vn -0.140237 -0.932186 0.333712
vn -0.287446 -0.946723 0.145225
vn 0.000000 -1.000000 -0.000000
vn 0.000000 -1.000000 -0.000000
vn -0.287446 -0.946723 0.145225
vn -0.323738 -0.945876 0.022640
vn 0.000000 -1.000000 -0.000000
vn 0.000000 -1.000000 -0.000000
vn 0.287445 -0.946723 0.145225
vn 0.140237 -0.932186 0.333711
vn 0.000000 -1.000000 -0.000000
vn 0.000000 -1.000000 -0.000000
vn 0.140237 -0.932186 0.333711
vn 0.020947 -0.914003 0.405167
vn 0.000000 -1.000000 -0.000000
vn 0.000000 -1.000000 -0.000000
vn -0.287446 -0.946723 -0.145225
vn -0.140237 -0.932186 -0.333712
vn 0.000000 -1.000000 -0.000000
vn 0.000000 -1.000000 -0.000000
vn -0.140237 -0.932186 -0.333712
vn -0.020947 -0.914002 -0.405167
vn 0.000000 -1.000000 -0.000000
vn 0.000000 -1.000000 -0.000000
vn 0.140237 -0.932186 -0.333712
vn 0.287445 -0.946723 -0.145225
vn 0.000000 -1.000000 -0.000000
vn 0.000000 -1.000000 -0.000000
vn 0.287445 -0.946723 -0.145225
vn 0.323736 -0.945876 -0.022640
# 380 vertex normals

vt 0.067272 0.490775 0.000000
vt 0.934381 0.489719 0.000000
vt 0.936108 0.497389 0.000000
vt 0.065583 0.498449 0.000000
vt 0.987590 0.451458 0.000000
vt 0.986601 0.048555 0.000000
vt 0.997558 0.047388 0.000000
vt 0.998553 0.452598 0.000000
vt 0.933200 0.010430 0.000000
vt 0.066091 0.011486 0.000000
vt 0.064364 0.003817 0.000000
vt 0.934889 0.002756 0.000000
vt 0.012886 0.049743 0.000000
vt 0.013877 0.452646 0.000000
vt 0.002921 0.453813 0.000000
vt 0.001923 0.048604 0.000000
vt 0.945316 0.998087 0.000000
vt 0.055366 0.998154 0.000000
vt 0.082893 0.976602 0.000000
vt 0.911596 0.976562 0.000000
vt 0.002087 0.960191 0.000000
vt 0.002021 0.541517 0.000000
vt 0.029445 0.563244 0.000000
vt 0.029468 0.938452 0.000000
vt 0.055127 0.503498 0.000000
vt 0.945084 0.503479 0.000000
vt 0.911380 0.525036 0.000000
vt 0.082653 0.525051 0.000000
vt 0.998259 0.541327 0.000000
vt 0.998336 0.959958 0.000000
vt 0.964706 0.938207 0.000000
vt 0.964659 0.563046 0.000000
vt 0.044671 0.063417 0.000000
vt 0.045594 0.438895 0.000000
vt 0.905755 0.028048 0.000000
vt 0.093625 0.029038 0.000000
vt 0.955804 0.437785 0.000000
vt 0.954882 0.062306 0.000000
vt 0.094718 0.473156 0.000000
vt 0.906848 0.472167 0.000000
vt 0.084110 0.082988 0.000000
vt 0.084936 0.419228 0.000000
vt 0.865539 0.046830 0.000000
vt 0.133935 0.047721 0.000000
vt 0.916364 0.418214 0.000000
vt 0.915538 0.081974 0.000000
vt 0.134934 0.454372 0.000000
vt 0.866538 0.453481 0.000000
vt 0.108689 0.960172 0.000000
vt 0.885532 0.960285 0.000000
vt 0.057345 0.581851 0.000000
vt 0.057194 0.923580 0.000000
vt 0.089742 0.063518 0.000000
vt 0.106365 0.051748 0.000000
vt 0.893129 0.050789 0.000000
vt 0.909810 0.062518 0.000000
vt 0.910731 0.437685 0.000000
vt 0.894109 0.449455 0.000000
vt 0.107344 0.450414 0.000000
vt 0.090664 0.438684 0.000000
vt 0.962808 0.483885 0.000000
vt 0.968248 0.490100 0.000000
vt 0.033409 0.491238 0.000000
vt 0.038819 0.485011 0.000000
vt 0.885455 0.545027 0.000000
vt 0.108619 0.545034 0.000000
vt 0.936784 0.923549 0.000000
vt 0.936931 0.581828 0.000000
vt 0.079993 0.956178 0.000000
vt 0.062859 0.944034 0.000000
vt 0.062821 0.561330 0.000000
vt 0.079936 0.549143 0.000000
vt 0.914128 0.549131 0.000000
vt 0.931262 0.561358 0.000000
vt 0.931304 0.944045 0.000000
vt 0.914168 0.956181 0.000000
vt 0.992390 0.980888 0.000000
vt 0.958803 0.959150 0.000000
vt 0.025979 0.993824 0.000000
vt 0.053505 0.972168 0.000000
vt 0.978882 0.028455 0.000000
vt 0.987753 0.024691 0.000000
vt 0.037665 0.017320 0.000000
vt 0.032225 0.011106 0.000000
vt 0.067553 0.469146 0.000000
vt 0.979973 0.471578 0.000000
vt 0.950103 0.456834 0.000000
vt 0.020502 0.029625 0.000000
vt 0.050372 0.044369 0.000000
vt 0.961656 0.016192 0.000000
vt 0.932923 0.032057 0.000000
vt 0.988862 0.475320 0.000000
vt 0.012723 0.476510 0.000000
vt 0.021594 0.472747 0.000000
vt 0.967064 0.009964 0.000000
vt 0.011612 0.025883 0.000000
vt 0.051389 0.457930 0.000000
vt 0.933995 0.468091 0.000000
vt 0.066479 0.033114 0.000000
vt 0.949087 0.043273 0.000000
vt 0.974448 0.507813 0.000000
vt 0.940758 0.529514 0.000000
vt 0.008001 0.520588 0.000000
vt 0.035397 0.542308 0.000000
vt 0.974685 0.993639 0.000000
vt 0.940995 0.971928 0.000000
vt 0.008185 0.981131 0.000000
vt 0.035652 0.959427 0.000000
vt 0.992191 0.520457 0.000000
vt 0.958508 0.542169 0.000000
vt 0.025738 0.507881 0.000000
vt 0.053242 0.529566 0.000000
# 112 texture coords

g tray
usemtl wire_028089177
s 1
f 1/1/1 2/2/2 30/3/3 5/4/4 
f 26/5/5 4/6/6 32/7/7 6/8/8 
f 28/9/9 27/10/10 31/11/11 8/12/12 
f 3/13/13 25/14/14 29/15/15 7/16/16 
s 2
f 5/17/17 30/18/18 34/19/19 9/20/20 
f 6/21/21 32/22/22 36/23/23 10/24/24 
f 8/25/25 31/26/26 35/27/27 12/28/28 
f 7/29/29 29/30/30 33/31/31 11/32/32 
s 1
f 9/20/33 34/19/34 38/49/35 13/50/36 
f 10/24/37 36/23/38 40/51/39 14/52/40 
f 12/28/41 35/27/42 39/65/43 16/66/44 
f 11/32/45 33/31/46 37/67/47 15/68/48 
s 4
f 14/52/49 40/51/50 79/71/51 80/72/52 
f 14/52/53 80/72/54 16/66/55 13/50/56 
f 16/66/57 39/65/58 77/73/59 78/74/60 
f 16/66/61 78/74/62 15/68/63 13/50/64 
f 15/68/65 37/67/66 73/75/67 74/76/68 
f 15/68/69 74/76/70 13/50/71 
f 76/70/72 14/52/73 13/50/74 75/69/75 
f 38/49/76 75/69/77 13/50/78 
s 1
f 25/14/79 3/13/80 43/33/81 17/34/82 
f 27/10/83 28/9/84 44/35/85 19/36/86 
f 4/6/87 26/5/88 42/37/89 20/38/90 
f 2/2/91 1/1/92 41/39/93 18/40/94 
f 17/34/95 43/33/96 47/41/97 21/42/98 
f 19/36/99 44/35/100 48/43/101 23/44/102 
f 20/38/103 42/37/104 46/45/105 24/46/106 
f 18/40/107 41/39/108 45/47/109 22/48/110 
f 23/44/111 48/43/112 95/55/113 96/56/114 
f 23/44/115 96/56/116 24/46/117 21/42/118 
f 24/46/119 46/45/120 91/57/121 92/58/122 
f 24/46/123 92/58/124 22/48/125 21/42/126 
f 22/48/127 45/47/128 89/59/129 90/60/130 
f 22/48/131 90/60/132 21/42/133 
f 94/54/134 23/44/135 21/42/136 93/53/137 
f 47/41/138 93/53/139 21/42/140 
f 60/62/141 30/3/142 2/2/143 51/61/144 
f 49/64/145 1/1/146 5/4/147 57/63/148 
f 64/82/149 32/7/150 4/6/151 55/81/152 
f 62/84/153 31/11/154 27/10/155 54/83/156 
s 2
f 66/78/157 33/31/158 29/30/159 58/77/160 
f 68/80/161 34/19/162 30/18/163 60/79/164 
f 70/102/165 35/27/166 31/26/167 62/101/168 
f 72/104/169 36/23/170 32/22/171 64/103/172 
s 1
f 73/75/173 37/67/174 33/31/175 66/78/176 
f 75/69/177 38/49/178 34/19/179 68/80/180 
f 77/73/181 39/65/182 35/27/183 70/102/184 
f 79/71/185 40/51/186 36/23/187 72/104/188 
f 82/85/189 41/39/190 1/1/191 49/64/192 
f 84/87/193 42/37/194 26/5/195 52/86/196 
f 86/89/197 43/33/198 3/13/199 53/88/200 
f 88/91/201 44/35/202 28/9/203 56/90/204 
f 89/59/205 45/47/206 41/39/207 82/85/208 
f 91/57/209 46/45/210 42/37/211 84/87/212 
f 93/53/213 47/41/214 43/33/215 86/89/216 
f 95/55/217 48/43/218 44/35/219 88/91/220 
f 59/92/221 60/62/222 51/61/223 52/86/224 
f 6/8/225 59/92/226 52/86/227 26/5/228 
f 50/94/229 49/64/230 57/63/231 58/93/232 
f 25/14/233 50/94/234 58/93/235 29/15/236 
f 63/95/237 64/82/238 55/81/239 56/90/240 
f 8/12/241 63/95/242 56/90/243 28/9/244 
f 61/96/245 62/84/246 54/83/247 53/88/248 
f 7/16/249 61/96/250 53/88/251 3/13/252 
s 2
f 65/106/253 66/78/254 58/77/255 57/105/256 
f 9/20/257 65/106/258 57/105/259 5/17/260 
f 67/108/261 68/80/262 60/79/263 59/107/264 
f 10/24/265 67/108/266 59/107/267 6/21/268 
f 69/110/269 70/102/270 62/101/271 61/109/272 
f 11/32/273 69/110/274 61/109/275 7/29/276 
f 71/112/277 72/104/278 64/103/279 63/111/280 
f 12/28/281 71/112/282 63/111/283 8/25/284 
s 1
f 74/76/285 73/75/286 66/78/287 65/106/288 
f 13/50/289 74/76/290 65/106/291 9/20/292 
f 76/70/293 75/69/294 68/80/295 67/108/296 
f 14/52/297 76/70/298 67/108/299 10/24/300 
f 78/74/301 77/73/302 70/102/303 69/110/304 
f 15/68/305 78/74/306 69/110/307 11/32/308 
f 80/72/309 79/71/310 72/104/311 71/112/312 
f 16/66/313 80/72/314 71/112/315 12/28/316 
f 81/97/317 82/85/318 49/64/319 50/94/320 
f 17/34/321 81/97/322 50/94/323 25/14/324 
f 83/98/325 84/87/326 52/86/327 51/61/328 
f 18/40/329 83/98/330 51/61/331 2/2/332 
f 85/99/333 86/89/334 53/88/335 54/83/336 
f 19/36/337 85/99/338 54/83/339 27/10/340 
f 87/100/341 88/91/342 56/90/343 55/81/344 
f 20/38/345 87/100/346 55/81/347 4/6/348 
f 90/60/349 89/59/350 82/85/351 81/97/352 
f 21/42/353 90/60/354 81/97/355 17/34/356 
f 92/58/357 91/57/358 84/87/359 83/98/360 
f 22/48/361 92/58/362 83/98/363 18/40/364 
f 94/54/365 93/53/366 86/89/367 85/99/368 
f 23/44/369 94/54/370 85/99/371 19/36/372 
f 96/56/373 95/55/374 88/91/375 87/100/376 
f 24/46/377 96/56/378 87/100/379 20/38/380 
# 92 polygons - 4 triangles

